<?xml version="1.0" encoding="UTF-8" standalone="no"?>
<svg
   version="1.1"
   id="Layer_1"
   x="0px"
   y="0px"
   width="100%"
   viewBox="0 0 1024 1024"
   enable-background="new 0 0 1024 1024"
   xml:space="preserve"
   sodipodi:docname="krrood_logo.svg"
   inkscape:version="1.2.2 (b0a8486541, 2022-12-01)"
   inkscape:export-filename="krrood_logo2.svg"
   inkscape:export-xdpi="96"
   inkscape:export-ydpi="96"
   xmlns:inkscape="http://www.inkscape.org/namespaces/inkscape"
   xmlns:sodipodi="http://sodipodi.sourceforge.net/DTD/sodipodi-0.dtd"
   xmlns="http://www.w3.org/2000/svg"
   xmlns:svg="http://www.w3.org/2000/svg"><defs
   id="defs519" /><sodipodi:namedview
   id="namedview517"
   pagecolor="#ffffff"
   bordercolor="#666666"
   borderopacity="1.0"
   inkscape:showpageshadow="2"
   inkscape:pageopacity="0.0"
   inkscape:pagecheckerboard="0"
   inkscape:deskcolor="#d1d1d1"
   showgrid="false"
   inkscape:zoom="0.70710678"
   inkscape:cx="188.0904"
   inkscape:cy="409.41482"
   inkscape:window-width="1854"
   inkscape:window-height="1011"
   inkscape:window-x="1986"
   inkscape:window-y="32"
   inkscape:window-maximized="1"
   inkscape:current-layer="Layer_1" />

<path
   fill="#000000"
   opacity="1"
   stroke="none"
   d="m 339.07538,690.05402 c -33.90518,-11.1269 -67.58386,-21.6186 -102.1306,-29.02601 -3.9016,-0.83667 -5.38408,-2.4815 -5.38034,-6.68609 0.10246,-114.98279 0.0658,-229.96561 0.0633,-344.94843 -3e-5,-1.3189 0.14366,-2.63781 0.2481,-4.43618 6.16671,-1.04868 11.95137,1.00143 17.61815,2.23159 5.7925,1.25742 10.01564,0.56299 14.04781,-4.08392 3.79773,-4.37665 8.50763,-7.95428 12.73495,-11.96902 1.87104,-1.77689 3.77701,-2.29511 6.34415,-1.61741 5.58249,1.47373 11.24191,2.65607 17.1145,4.0141 1.66635,-7.50866 0.34714,-14.64752 0.46875,-21.73236 0.0653,-3.80542 0.68833,-5.35012 5.1604,-4.44799 62.76389,12.66113 121.40894,35.23641 174.26236,71.87951 10.13504,7.02664 20.11737,14.26282 29.22846,22.61578 2.22598,2.04078 4.0022,3.37955 7.09997,0.64029 36.65943,-32.41622 78.70093,-55.7308 124.33252,-72.84536 25.6062,-9.60389 51.84943,-17.01493 78.70801,-22.21912 5.80365,-1.12454 6.23193,-0.82907 6.27344,5.27606 0.0451,6.62259 0.0102,13.2457 0.0102,20.50128 5.86096,-1.2557 11.03278,-2.28219 16.1612,-3.49243 3.18573,-0.75177 5.64349,-0.18692 8.09252,2.25177 4.48054,4.4617 9.4657,8.41367 13.99885,12.82639 2.73779,2.66516 5.48815,3.83743 9.35809,2.9331 5.01306,-1.17138 10.13006,-1.9133 15.21789,-2.74536 5.35724,-0.87613 6.18866,-0.20044 6.19434,5.19827 0.0325,30.99537 0.0288,61.99076 0.0318,92.98612 0.008,82.4877 0.0271,164.97537 0.002,247.4631 -0.003,10.52112 1.21546,8.9516 -8.82501,11.19928 -48.99292,10.96778 -96.63843,26.33246 -143.59076,43.97406 -42.58649,16.00116 -84.39648,33.81806 -125.34479,53.63202 -3.24084,1.56818 -5.57116,0.85584 -8.37683,-0.47265 C 453.21759,732.92065 397.12564,709.6062 339.07538,690.05402 M 542.77777,407.52103 c 2.62775,0.41479 5.28211,0.70556 7.87909,1.26336 30.56079,6.56382 53.18085,23.14185 65.06738,52.62848 6.77783,16.81381 8.95215,34.45465 6.46479,52.44547 -2.88422,20.86157 -9.38465,40.4281 -24.87629,55.49646 -20.45758,19.89862 -50.13545,27.39148 -73.64312,17.74605 -23.50767,-9.64543 5.17732,-41.67518 -3.22473,-53.85065 -8.40204,-12.17547 -22.63173,-8.63162 -34.10392,-6.91786 -19.49648,2.91247 -39.9534,9.55334 -51.99197,28.18139 -13.47916,20.85706 -15.32041,43.95587 -10.40436,67.77179 5.86044,28.39148 22.74719,46.42853 51.23001,53 13.2572,3.05872 26.79657,2.79834 40.27811,2.44769 4.61645,-0.12011 6.05389,1.42505 5.99347,5.99695 -0.20685,15.66144 -0.0687,31.32788 0.009,46.99201 0.009,1.72876 -0.69531,3.65167 0.91785,5.37896 1.05835,-0.38482 2.15137,-0.71044 3.18543,-1.16912 13.09051,-5.80664 26.11614,-11.76331 39.26629,-17.43122 65.23218,-28.11602 131.86206,-52.2315 200.75256,-69.83831 11.05359,-2.82508 11.07709,-2.81128 11.0755,-14.30054 -0.0128,-92.82038 -0.0198,-185.64078 -0.0761,-278.46118 -0.005,-8.32645 -0.42462,-16.65204 -0.49121,-24.97934 -0.0281,-3.50989 -1.11633,-4.67664 -4.82483,-3.88089 -9.91992,2.1286 -19.96209,3.68896 -29.87915,5.8294 -73.03875,15.7641 -143.99121,38.5456 -214.25195,63.68134 -5.25305,1.8793 -5.80457,5.07175 -4.97699,9.89593 6.59619,0.62418 13.17712,1.24692 20.625,2.07383 m 33.87598,31.32705 c -13.46112,-9.67138 -28.94544,-13.21328 -45.06079,-14.45154 -7.6269,-0.58602 -15.32129,-0.3992 -22.98417,-0.36401 -3.58279,0.0164 -5.15792,-1.28741 -4.98974,-5.00592 0.20306,-4.48941 -0.4119,-9.04901 0.12332,-13.48208 0.74069,-6.13471 -1.93085,-8.65119 -7.50565,-10.62543 -46.93856,-16.62253 -94.18673,-32.25354 -142.17758,-45.57926 -32.56158,-9.04147 -65.39135,-16.95443 -98.64268,-23.03595 -5.91175,-1.08123 -5.95388,-0.86978 -5.99935,5.29346 -0.0148,1.99951 -0.0119,3.99918 -0.007,5.99878 0.1669,75.80252 0.3383,151.60501 0.50092,227.40753 0.0533,24.82831 0.17215,49.65711 0.045,74.48456 -0.0232,4.52564 1.61906,6.37091 6.00243,7.37494 26.64084,6.10205 52.74307,14.1626 78.73596,22.53143 54.93371,17.68671 108.07666,39.93701 160.67154,63.55884 2.3338,1.04822 4.54465,2.85614 7.29959,2.11023 1.35342,-1.57312 1.05267,-3.30505 1.05914,-4.93335 0.0377,-9.49799 -0.13022,-19 0.10233,-28.49255 0.0986,-4.02399 -1.15354,-5.50519 -5.31922,-5.67762 -8.46661,-0.3504 -16.93841,-0.88818 -25.29556,-2.63183 -28.30563,-5.90595 -49.44784,-21.01898 -60.9526,-48.0116 -8.7009,-20.41418 -10.71967,-41.86078 -7.133,-63.65741 3.1188,-18.953 10.17841,-36.31457 24.46957,-49.79663 21.06021,-19.8678 46.43259,-26.96088 74.65848,-22.72116 25.22595,3.78903 37.38831,22.47432 32.97901,47.74647 -0.81775,4.68671 -3.84329,11.75644 -2.46598,16.68372 0.65685,2.34985 6.33859,1.42116 8.30185,1.3016 26.53711,-1.61615 47.97388,-17.83484 56.59821,-42.8855 5.02313,-14.59051 6.1698,-29.51736 4.14673,-44.80618 -2.58216,-19.513 -10.40247,-36.00461 -27.16028,-48.33353 M 506.6456,375.75604 c 2.9726,1.65207 5.08402,5.03931 9.59326,2.03788 38.68848,-25.75171 80.98859,-44.03855 124.64802,-59.35395 22.93463,-8.04523 46.1289,-15.32007 69.75177,-21.147 1.82342,-0.44971 4.518,-0.47403 4.73077,-2.97299 0.44183,-5.1894 0.71399,-10.43711 -0.23718,-15.60657 -1.18036,0 -1.68579,-0.087 -2.15137,0.0125 -25.44293,5.43073 -50.3559,12.67648 -74.56683,22.21133 -45.02784,17.73307 -86.51368,41.33503 -122.15314,74.46824 -2.77673,2.58145 -4.65067,2.09997 -7.10544,-0.31269 -8.21829,-8.07748 -17.35428,-15.07876 -26.65173,-21.83801 -44.31305,-32.21545 -93.24283,-54.66791 -146.13449,-68.59766 -8.42829,-2.21972 -16.82627,-4.80722 -25.51795,-5.75561 -1.08981,2.74417 -0.68658,5.09994 -0.64914,7.39111 0.19223,11.77268 -1.74865,9.60114 9.79773,12.69293 65.29141,17.48325 128.19324,40.77161 186.64572,76.77054 M 372.06134,323.50662 c -28.1394,-9.20614 -56.60751,-17.21484 -85.53152,-23.58114 -2.18723,-0.48145 -4.29053,-1.11533 -6.07462,0.69366 -3.11047,3.1539 -6.12781,6.39963 -9.75461,10.20541 70.96649,14.21103 139.35956,35.6684 207.36566,58.48676 -33.6662,-18.5885 -69.00164,-33.14475 -106.00491,-45.80469 m 318.84058,1.76608 c 21.13305,-5.56039 42.50122,-10.14636 64.60492,-14.98571 -3.7713,-3.36734 -6.92157,-6.05262 -9.91791,-8.8999 -2.03931,-1.93778 -4.13819,-2.14795 -6.84381,-1.56449 -52.20386,11.25812 -102.69367,27.75617 -151.46167,49.49548 -12.85419,5.72996 -25.7544,11.41001 -37.7428,18.97864 8.77161,-2.4591 17.39734,-5.28662 25.99701,-8.19134 37.81744,-12.77378 75.82904,-24.90171 115.36426,-34.83268"
   id="path514"
   sodipodi:nodetypes="cscscsssscsssscssscsssssssssssscccssszzasssssscssssssscscccsssscssscsscsscssscsssssssssccssssccsscssccsccsscccccscscsc" />
<path
   style="fill:#4b8bbe;fill-opacity:1"
   d="M 494,731.86816 C 416.81962,696.55287 336.88054,667.24453 270.8979,650.07146 257.96044,646.70428 253.05134,644.99666 251.75,643.4109 250.09978,641.40002 250,632.30467 250,483.88922 V 326.5 h 2.43383 c 6.86726,0 60.19472,12.18317 96.56617,22.06148 50.48872,13.71248 147.44729,45.31837 152.18894,49.60951 1.53459,1.38878 1.81106,3.28363 1.81106,12.41257 0,7.98832 0.36819,11.14177 1.42419,12.19778 1.07188,1.07188 5.71024,1.5699 18.75,2.01319 24.19137,0.82241 38.29317,4.51563 51.50838,13.48991 14.15677,9.61367 23.67504,24.42662 27.44751,42.71556 1.69328,8.209 1.97697,12.41786 1.58398,23.5 -0.7863,22.17351 -6.38512,37.27767 -18.64378,50.29604 -11.22679,11.92254 -26.47178,18.86032 -41.94941,19.09058 L 535.5,574 l -0.33091,-2.90014 c -0.182,-1.59507 0.1981,-4.97007 0.84467,-7.5 3.30895,-12.94735 2.97102,-24.82451 -0.95909,-33.70916 -1.05227,-2.37884 -4.01396,-6.57102 -6.58153,-9.31596 -7.81639,-8.35636 -17.2494,-11.79091 -34.97314,-12.73372 -24.34195,-1.29485 -45.82053,6.61987 -63.67671,23.46449 -12.13557,11.44809 -19.60459,25.25767 -24.07063,44.50457 -3.09079,13.32013 -3.085,38.51654 0.0117,50.89732 7.21466,28.84461 21.19228,47.69567 43.50615,58.675 12.08377,5.94571 22.03264,8.61422 37.7295,10.11989 6.325,0.60671 12.5125,1.31297 13.75,1.56946 2.23535,0.46332 2.25,0.58672 2.25,18.9473 0,21.13208 0.52504,20.20747 -9,15.84911 z"
   id="path4421" /><path
   style="fill:#ffe873;fill-opacity:1"
   d="m 522,708.19113 c 0,-20.33475 -0.31922,-27.71381 -1.25,-28.89452 -1.03165,-1.30867 -4.48156,-1.67671 -19.75,-2.10693 -21.49743,-0.60574 -29.55565,-2.26105 -43,-8.83303 C 441.3394,660.21248 430.09162,645.16433 424.8455,624 c -3.25818,-13.14441 -3.27302,-35.67483 -0.0309,-46.94341 8.43119,-29.3043 26.97416,-44.62106 60.62783,-50.07947 13.64499,-2.21313 23.18379,-1.94388 27.96356,0.78933 9.06127,5.18149 9.73571,9.83137 4.11515,28.37185 -6.88738,22.71934 -4.13373,29.17557 14.47887,33.9472 8.21461,2.10594 24.66375,1.4318 33.56125,-1.37546 21.94372,-6.92349 41.30772,-24.61543 49.48284,-45.21004 11.55754,-29.11557 11.16348,-60.6908 -1.08359,-86.82537 C 599.68999,426.22215 574.78221,410.32305 535,406.27267 c -11.41552,-1.16226 -12.5258,-1.45319 -12.79737,-3.35339 -0.60255,-4.2161 2.8487,-6.2315 22.29737,-13.02086 83.98008,-29.31669 159.84858,-50.89167 214.32402,-60.94805 13.1222,-2.42241 15.45487,-2.62208 16.23469,-1.38962 0.53738,0.8493 0.91694,65.62792 0.92598,158.03426 0.0145,147.88904 -0.082,156.68164 -1.73469,158.15306 -0.9625,0.85692 -7.15,2.98903 -13.75,4.73802 -71.4403,18.93156 -138.79792,43.16859 -219.27352,78.90034 -10.05044,4.46246 -18.48794,8.11357 -18.75,8.11357 C 522.21441,735.5 522,723.21101 522,708.19113 Z"
   id="path6808" /><path
   style="fill:#ffffff;fill-opacity:1"
   d="m 520.45633,372.25 c 17.2061,-15.42669 43.72762,-34.17166 65.39614,-46.22091 C 607.93926,313.74725 639.20631,300.32386 665,292.04993 680.30958,287.13901 709.49931,279.5 712.955,279.5 c 1.89025,0 2.045,0.60776 2.045,8.03138 0,5.54649 -0.38675,8.15435 -1.25,8.42881 -0.6875,0.21858 -7.325,2.01418 -14.75,3.99022 -28.93203,7.69978 -63.16024,19.17026 -94,31.50109 -21.14136,8.45305 -60.72685,28.12326 -76.3861,37.95659 -7.08736,4.45055 -13.13968,8.09191 -13.44962,8.09191 -0.30993,0 2.07149,-2.3625 5.29205,-5.25 z"
   id="path7743" /><path
   style="fill:#ffffff;fill-opacity:1"
   d="M 500,371.28569 C 460.81138,346.7201 396.34999,319.90633 336,303.06721 c -11.275,-3.146 -21.5125,-6.12598 -22.75,-6.62217 -2.07136,-0.83053 -2.25,-1.53905 -2.25,-8.9236 0,-6.3966 0.29825,-8.02144 1.47237,-8.02144 0.8098,0 8.5723,1.81077 17.25,4.02393 60.14038,15.33824 110.34649,38.85182 156.77763,73.42541 11.28631,8.40402 22.78137,18.49923 21,18.44266 -0.55,-0.0175 -3.925,-1.86531 -7.5,-4.10631 z"
   id="path7883" /><path
   style="fill:#ffffff;fill-opacity:1;stroke-width:0.176777"
   d="m 474.99898,368.21598 c -3.01274,-1.13634 -38.31463,-12.68025 -52.59107,-17.19756 -56.2543,-17.79985 -105.77855,-31.03056 -147.73224,-39.46762 l -3.83601,-0.77143 1.36114,-1.41884 c 0.74862,-0.78036 3.03162,-3.16106 5.07333,-5.29045 4.05339,-4.22747 4.44052,-4.51162 6.15564,-4.51809 2.17812,-0.008 24.92424,5.41806 41.22063,9.83352 30.17314,8.17533 56.27812,16.74222 82.73149,27.15003 24.50168,9.63993 48.23064,20.60254 67.97064,31.40195 1.49196,0.81622 1.35602,0.9233 -0.35355,0.27849 z"
   id="path7887" /><path
   style="fill:#ffffff;fill-opacity:1;stroke-width:0.125"
   d="m 550.375,367.88394 c 0,-0.086 4.36051,-2.66925 6.83399,-4.04861 7.19507,-4.01242 14.42504,-7.48435 30.04101,-14.42612 48.0186,-21.3457 96.62642,-37.38711 147.23422,-48.58981 5.5107,-1.21986 6.3701,-1.34835 7.61063,-1.13788 l 0.90735,0.15394 -0.0324,6.56531 -0.0323,6.56532 -10.25,2.28435 c -17.43228,3.88502 -26.75973,6.09895 -40.0625,9.50911 -22.10819,5.66742 -34.34657,9.06129 -54.0625,14.9923 -16.66284,5.01256 -29.57231,9.14787 -56.1875,17.99858 -20.88916,6.94656 -23.38305,7.75133 -29.61454,9.55643 -2.16031,0.62579 -2.38546,0.68026 -2.38546,0.57708 z"
   id="path7889" /><path
   style="fill:#ffffff;fill-opacity:1;stroke-width:0.125"
   d="m 511.84324,378.80917 c -0.74417,-0.18709 -1.67538,-0.703 -3.15574,-1.74834 -5.77646,-4.07897 -27.42846,-16.35846 -40.27972,-22.84381 l -3.15471,-1.59202 -0.002,-5.58885 -0.002,-5.58885 2.21875,1.4565 c 6.8575,4.50163 16.21743,11.16094 23.21875,16.51945 7.01553,5.36938 11.52891,9.18322 17.25189,14.57794 2.90442,2.73783 3.51314,3.123 4.93561,3.123 0.82969,0 1.02806,-0.0491 1.725,-0.42659 0.44475,-0.24093 1.48034,-1.05683 2.37934,-1.8746 11.04692,-10.0487 19.60376,-17.05139 30.58316,-25.02845 24.69197,-17.9399 53.53379,-33.65931 85.8125,-46.76967 22.76564,-9.24652 46.02922,-16.55811 71.05901,-22.33338 7.4272,-1.71372 8.98875,-2.01888 9.86943,-1.92865 l 0.79235,0.0812 0.13958,0.89048 c 0.34832,2.22208 0.43245,3.60696 0.42244,6.95299 -0.0134,4.46574 -0.27116,7.86709 -0.65301,8.61558 -0.33021,0.64727 -1.11486,1.1652 -2.16556,1.42943 -0.4272,0.10744 -2.52049,0.62166 -4.65174,1.14272 -25.45068,6.22227 -60.37444,17.43414 -91.32656,29.31934 -28.58791,10.97737 -53.93916,22.79499 -76.45606,35.64041 -7.77515,4.43556 -15.59756,9.23843 -23.13494,14.2046 -1.05466,0.69488 -2.23591,1.38468 -2.625,1.53289 -0.79708,0.3036 -2.09833,0.41354 -2.8017,0.2367 z"
   id="path7891" /><path
   style="fill:#ffffff;fill-opacity:1;stroke-width:0.5"
   d="M 507.22351,375.93368 C 495.00332,368.24042 468.91388,353.9825 454.5,347.1202 414.50588,328.07943 369.58324,311.95938 319.01892,298.50414 c -3.70209,-0.98513 -7.13334,-2.15519 -7.625,-2.60014 -0.78473,-0.71017 -0.89392,-1.74809 -0.89392,-8.49719 0,-6.23821 0.13609,-7.74042 0.7216,-7.9651 1.17552,-0.45109 10.75779,1.58177 22.78166,4.83308 35.44366,9.58413 59.79315,18.69836 88.99674,33.31229 31.74037,15.88336 61.62793,35.57857 82.88243,54.61759 3.59354,3.21895 6.03699,5.04437 6.75,5.0427 1.57393,-0.003 2.9741,-1.01782 9.82547,-7.11633 40.27812,-35.85217 96.14126,-65.35479 156.7921,-82.80554 14.29869,-4.11409 35.01384,-8.97868 35.62556,-8.36605 0.58211,0.58299 0.4539,16.16182 -0.13788,16.75321 -0.28178,0.28159 -4.55678,1.55028 -9.5,2.8193 -35.85753,9.20534 -80.93597,24.67688 -115.20858,39.54114 -12.53861,5.43809 -38.4996,18.31321 -48.67289,24.13889 -4.34158,2.48619 -12.21658,7.22348 -17.5,10.5273 -5.73783,3.58799 -10.12025,6.00772 -10.8827,6.00884 -0.70207,10e-4 -3.28957,-1.26547 -5.75,-2.81445 z"
   id="path7893" /><path
   style="fill:#ffffff;fill-opacity:1;stroke-width:0.5"
   d="M 454,361.24218 C 397.7048,342.48464 348.84818,328.36161 303.75,317.80927 295.18498,315.80518 271.83289,310.75 271.14012,310.75 c -0.20519,0 2.09426,-2.475 5.10988,-5.5 4.74288,-4.75763 5.70331,-5.5 7.11558,-5.5 2.93296,0 28.64958,6.21292 47.82246,11.5535 40.60043,11.3092 76.29192,24.23787 111.31196,40.32098 14.50792,6.66282 33.09329,16.14272 31.5,16.0673 -0.4125,-0.0195 -9.4125,-2.92184 -20,-6.4496 z"
   id="path7895" /></svg>
