<?xml version="1.0" encoding="UTF-8" standalone="no"?>
<svg
   version="1.1"
   id="Layer_1"
   x="0px"
   y="0px"
   width="100%"
   viewBox="0 0 1024 1024"
   enable-background="new 0 0 1024 1024"
   xml:space="preserve"
   sodipodi:docname="krrood_logo.svg"
   inkscape:version="1.2.2 (b0a8486541, 2022-12-01)"
   inkscape:export-filename="krrood_logo2.svg"
   inkscape:export-xdpi="96"
   inkscape:export-ydpi="96"
   xmlns:inkscape="http://www.inkscape.org/namespaces/inkscape"
   xmlns:sodipodi="http://sodipodi.sourceforge.net/DTD/sodipodi-0.dtd"
   xmlns="http://www.w3.org/2000/svg"
   xmlns:svg="http://www.w3.org/2000/svg"><defs
   id="defs519" /><sodipodi:namedview
   id="namedview517"
   pagecolor="#ffffff"
   bordercolor="#666666"
   borderopacity="1.0"
   inkscape:showpageshadow="2"
   inkscape:pageopacity="0"
   inkscape:pagecheckerboard="true"
   inkscape:deskcolor="#d1d1d1"
   showgrid="false"
   inkscape:zoom="2.8284271"
   inkscape:cx="483.30749"
   inkscape:cy="442.47207"
   inkscape:window-width="1854"
   inkscape:window-height="1011"
   inkscape:window-x="1986"
   inkscape:window-y="32"
   inkscape:window-maximized="1"
   inkscape:current-layer="Layer_1"><inkscape:grid
     type="xygrid"
     id="grid214" /></sodipodi:namedview>

<path
   fill="#000000"
   opacity="1"
   stroke="none"
   d="m 339.07538,690.05402 c -33.90518,-11.1269 -67.58386,-21.6186 -102.1306,-29.02601 -3.9016,-0.83667 -5.38408,-2.4815 -5.38034,-6.68609 0.10246,-114.98279 0.0658,-229.96561 0.0633,-344.94843 -3e-5,-1.3189 0.14366,-2.63781 0.2481,-4.43618 6.16671,-1.04868 11.95137,1.00143 17.61815,2.23159 5.7925,1.25742 10.01564,0.56299 14.04781,-4.08392 3.79773,-4.37665 8.50763,-7.95428 12.73495,-11.96902 1.87104,-1.77689 3.77701,-2.29511 6.34415,-1.61741 5.58249,1.47373 11.24191,2.65607 17.1145,4.0141 1.66635,-7.50866 0.34714,-14.64752 0.46875,-21.73236 0.0653,-3.80542 0.68833,-5.35012 5.1604,-4.44799 62.76389,12.66113 121.40894,35.23641 174.26236,71.87951 10.13504,7.02664 20.11737,14.26282 29.22846,22.61578 2.22598,2.04078 4.0022,3.37955 7.09997,0.64029 36.65943,-32.41622 78.70093,-55.7308 124.33252,-72.84536 25.6062,-9.60389 51.84943,-17.01493 78.70801,-22.21912 5.80365,-1.12454 6.23193,-0.82907 6.27344,5.27606 0.0451,6.62259 0.0102,13.2457 0.0102,20.50128 5.86096,-1.2557 11.03278,-2.28219 16.1612,-3.49243 3.18573,-0.75177 5.64349,-0.18692 8.09252,2.25177 4.48054,4.4617 9.4657,8.41367 13.99885,12.82639 2.73779,2.66516 5.48815,3.83743 9.35809,2.9331 5.01306,-1.17138 10.13006,-1.9133 15.21789,-2.74536 5.35724,-0.87613 6.18866,-0.20044 6.19434,5.19827 0.0325,30.99537 0.0288,61.99076 0.0318,92.98612 0.008,82.4877 0.0271,164.97537 0.002,247.4631 -0.003,10.52112 1.21546,8.9516 -8.82501,11.19928 -48.99292,10.96778 -96.63843,26.33246 -143.59076,43.97406 -42.58649,16.00116 -84.39648,33.81806 -125.34479,53.63202 -3.24084,1.56818 -5.57116,0.85584 -8.37683,-0.47265 C 453.21759,732.92065 397.12564,709.6062 339.07538,690.05402 M 545.85855,406.76221 c 2.62775,0.41479 4.58634,-0.74356 7.18332,-0.18576 30.56079,6.56382 50.79584,25.34979 62.68237,54.83642 6.77783,16.81381 8.95215,34.45465 6.46479,52.44547 -2.88422,20.86157 -4.3646,43.23811 -19.85624,58.30647 -20.45758,19.89862 -56.50834,26.77763 -80.01601,17.1322 -23.50767,-9.64543 4.71574,-43.11445 -3.68631,-55.28992 -8.40204,-12.17547 -21.46642,-7.84394 -32.10798,-5.64331 -17.91529,3.70481 -33.81406,11.53295 -45.85263,30.161 -13.47916,20.85706 -16.60679,39.59693 -11.69074,63.41285 5.86044,28.39148 21.6424,41.18357 50.12522,47.75504 13.2572,3.05872 23.09549,5.77234 36.57703,5.42169 4.61645,-0.12011 10.44317,3.68431 10.38275,8.25621 -0.20685,15.66144 3.8244,29.40937 3.9021,45.0735 0.009,1.72876 -9.2063,5.92977 -7.59314,7.65706 1.05835,-0.38482 1.41162,-4.40112 2.44568,-4.8598 13.09051,-5.80664 25.94909,-12.61775 39.09924,-18.28566 65.23218,-28.11602 131.42761,-52.91113 200.31811,-70.51794 11.05359,-2.82508 7.47761,3.62461 7.47602,-7.86465 -0.0128,-92.82038 0.71674,-186.5786 0.66044,-279.399 -0.005,-8.32645 -0.87749,-16.17857 -0.94408,-24.50587 -0.0281,-3.50989 2.77646,-2.28575 -0.93204,-1.49 -9.91992,2.1286 -18.23974,4.23156 -28.1568,6.372 -73.03875,15.7641 -143.32411,38.80001 -213.58485,63.93575 -5.25305,1.8793 -2.17163,-1.07633 -1.34405,3.74785 6.59619,0.62418 9.39178,2.35369 16.83966,3.1806 m 29.12237,33.44337 c -13.46112,-9.67138 -25.76948,-11.86703 -41.88483,-13.10529 -7.6269,-0.58602 -14.71642,0.39535 -22.3793,0.43054 -3.58279,0.0164 -7.25112,-3.98046 -7.08294,-7.69897 0.20306,-4.48941 -2.84769,-9.36667 -2.31247,-13.79974 0.74069,-6.13471 0.0879,-6.16201 -5.48691,-8.13625 -46.93856,-16.62253 -92.75436,-30.90142 -140.74521,-44.22714 -32.56158,-9.04147 -63.18377,-17.42623 -96.4351,-23.50775 -5.91175,-1.08123 -6.34467,-4.34782 -6.39014,1.81542 -0.0148,1.99951 1.36636,4.51417 1.37126,6.51377 0.1669,75.80252 0.0479,151.27612 0.2105,227.07864 0.0533,24.82831 2.01578,49.62089 1.88863,74.44834 -0.0232,4.52564 -1.60642,4.36392 2.77695,5.36795 26.64084,6.10205 49.23259,12.52062 75.22548,20.88945 54.93371,17.68671 108.86664,36.83058 161.46152,60.45241 2.3338,1.04822 3.16216,7.69036 5.9171,6.94445 1.35342,-1.57312 1.05267,-3.30505 1.05914,-4.93335 0.0377,-9.49799 -0.13022,-19 0.10233,-28.49255 0.0986,-4.02399 0.87702,0.23141 -3.28866,0.059 -8.46661,-0.3504 -17.00677,-2.4955 -25.36392,-4.23915 -28.30563,-5.90595 -50.44927,-23.22194 -61.95403,-50.21456 -8.7009,-20.41418 -10.26264,-42.82494 -6.67597,-64.62157 3.1188,-18.953 10.39175,-37.26871 24.68291,-50.75077 21.06021,-19.8678 47.74076,-27.9588 75.96665,-23.71908 25.22595,3.78903 41.16509,25.22922 36.75579,50.50137 -0.81775,4.68671 -2.24857,8.38526 -0.87126,13.31254 0.65685,2.34985 2.81052,-0.16743 4.77378,-0.28699 26.53711,-1.61615 44.00467,-13.7828 52.629,-38.83346 5.02313,-14.59051 6.34323,-28.63458 4.32016,-43.9234 -2.58216,-19.513 -8.26474,-32.93211 -25.02255,-45.26103 M 506.6456,375.75604 c 2.9726,1.65207 5.08402,5.03931 9.59326,2.03788 38.68848,-25.75171 80.98859,-44.03855 124.64802,-59.35395 22.93463,-8.04523 46.1289,-15.32007 69.75177,-21.147 1.82342,-0.44971 4.518,-0.47403 4.73077,-2.97299 0.44183,-5.1894 0.71399,-10.43711 -0.23718,-15.60657 -1.18036,0 -1.68579,-0.087 -2.15137,0.0125 -25.44293,5.43073 -50.3559,12.67648 -74.56683,22.21133 -45.02784,17.73307 -86.51368,41.33503 -122.15314,74.46824 -2.77673,2.58145 -4.65067,2.09997 -7.10544,-0.31269 -8.21829,-8.07748 -17.35428,-15.07876 -26.65173,-21.83801 -44.31305,-32.21545 -93.24283,-54.66791 -146.13449,-68.59766 -8.42829,-2.21972 -16.82627,-4.80722 -25.51795,-5.75561 -1.08981,2.74417 -0.68658,5.09994 -0.64914,7.39111 0.19223,11.77268 -1.74865,9.60114 9.79773,12.69293 65.29141,17.48325 128.19324,40.77161 186.64572,76.77054 M 372.06134,323.50662 c -28.1394,-9.20614 -56.60751,-17.21484 -85.53152,-23.58114 -2.18723,-0.48145 -4.29053,-1.11533 -6.07462,0.69366 -3.11047,3.1539 -6.12781,6.39963 -9.75461,10.20541 70.96649,14.21103 139.35956,35.6684 207.36566,58.48676 -33.6662,-18.5885 -69.00164,-33.14475 -106.00491,-45.80469 m 318.84058,1.76608 c 21.13305,-5.56039 42.50122,-10.14636 64.60492,-14.98571 -3.7713,-3.36734 -6.92157,-6.05262 -9.91791,-8.8999 -2.03931,-1.93778 -4.13819,-2.14795 -6.84381,-1.56449 -52.20386,11.25812 -102.69367,27.75617 -151.46167,49.49548 -12.85419,5.72996 -25.7544,11.41001 -37.7428,18.97864 8.77161,-2.4591 17.39734,-5.28662 25.99701,-8.19134 37.81744,-12.77378 75.82904,-24.90171 115.36426,-34.83268"
   id="path514"
   sodipodi:nodetypes="cscscsssscsssscssscsssssssssssscccssszsasssssscssssssscscccsssscssscsscsscssscsssssssssccssssccsscssccsccsscccccscscsc" />
<path
   style="fill:#4b8bbe;fill-opacity:1"
   d="M 494,731.86816 C 416.81962,696.55287 336.88054,667.24453 270.8979,650.07146 257.96044,646.70428 253.05134,644.99666 251.75,643.4109 250.09978,641.40002 250,632.30467 250,483.88922 V 326.5 h 2.43383 c 6.86726,0 60.19472,12.18317 96.56617,22.06148 50.48872,13.71248 147.44729,45.31837 152.18894,49.60951 1.53459,1.38878 1.81106,3.28363 1.81106,12.41257 0,7.98832 0.36819,11.14177 1.42419,12.19778 1.07188,1.07188 5.71024,1.5699 18.75,2.01319 24.19137,0.82241 38.29317,4.51563 51.50838,13.48991 14.15677,9.61367 23.67504,24.42662 27.44751,42.71556 1.69328,8.209 1.97697,12.41786 1.58398,23.5 -0.7863,22.17351 -7.32179,38.12687 -18.64378,50.29604 -11.32199,12.16918 -26.95995,15.72328 -41.94941,19.09058 -2.47879,0.55685 -5.71279,1.7908 -7.62087,0.11338 -0.73075,-0.64242 -0.3302,-1.92715 -0.33091,-2.90014 -0.002,-2.5158 0.1981,-4.97007 0.84467,-7.5 3.30895,-12.94735 2.97102,-24.82451 -0.95909,-33.70916 -1.05227,-2.37884 -4.01396,-6.57102 -6.58153,-9.31596 -7.81639,-8.35636 -17.2494,-11.79091 -34.97314,-12.73372 -24.34195,-1.29485 -45.82053,6.61987 -63.67671,23.46449 -12.13557,11.44809 -19.60459,25.25767 -24.07063,44.50457 -3.09079,13.32013 -3.085,38.51654 0.0117,50.89732 7.21466,28.84461 21.19228,47.69567 43.50615,58.675 12.08377,5.94571 22.03264,8.61422 37.7295,10.11989 6.325,0.60671 12.5125,1.31297 13.75,1.56946 2.23535,0.46332 2.25,0.58672 2.25,18.9473 0,21.13208 0.52504,20.20747 -9,15.84911 z"
   id="path4421"
   sodipodi:nodetypes="sssscssssssssszasasssssssssssss" /><path
   style="fill:#ffe873;fill-opacity:1"
   d="m 522,708.19113 c 0,-20.33475 -0.31922,-27.71381 -1.25,-28.89452 -1.03165,-1.30867 -4.48156,-1.67671 -19.75,-2.10693 -21.49743,-0.60574 -29.55565,-2.26105 -43,-8.83303 C 441.3394,660.21248 430.09162,645.16433 424.8455,624 c -3.25818,-13.14441 -3.27302,-35.67483 -0.0309,-46.94341 8.43119,-29.3043 26.97416,-44.62106 60.62783,-50.07947 13.64499,-2.21313 23.18379,-1.94388 27.96356,0.78933 9.06127,5.18149 9.73571,9.83137 4.11515,28.37185 -6.88738,22.71934 -4.13373,29.17557 14.47887,33.9472 8.21461,2.10594 24.66375,1.4318 33.56125,-1.37546 21.94372,-6.92349 41.30772,-24.61543 49.48284,-45.21004 11.55754,-29.11557 11.16348,-60.6908 -1.08359,-86.82537 C 599.68999,426.22215 574.78221,410.32305 535,406.27267 c -11.41552,-1.16226 -12.5258,-1.45319 -12.79737,-3.35339 -0.60255,-4.2161 2.8487,-6.2315 22.29737,-13.02086 83.98008,-29.31669 159.84858,-50.89167 214.32402,-60.94805 13.1222,-2.42241 15.45487,-2.62208 16.23469,-1.38962 0.53738,0.8493 0.91694,65.62792 0.92598,158.03426 0.0145,147.88904 -0.082,156.68164 -1.73469,158.15306 -0.9625,0.85692 -7.15,2.98903 -13.75,4.73802 -71.4403,18.93156 -138.79792,43.16859 -219.27352,78.90034 -10.05044,4.46246 -18.48794,8.11357 -18.75,8.11357 C 522.21441,735.5 522,723.21101 522,708.19113 Z"
   id="path6808" /><path
   style="fill:#ffffff;fill-opacity:1"
   d="m 520.45633,372.25 c 17.2061,-15.42669 43.72762,-34.17166 65.39614,-46.22091 C 607.93926,313.74725 639.20631,300.32386 665,292.04993 680.30958,287.13901 709.49931,279.5 712.955,279.5 c 1.89025,0 2.045,0.60776 2.045,8.03138 0,5.54649 -0.38675,8.15435 -1.25,8.42881 -0.6875,0.21858 -7.325,2.01418 -14.75,3.99022 -28.93203,7.69978 -63.16024,19.17026 -94,31.50109 -21.14136,8.45305 -60.72685,28.12326 -76.3861,37.95659 -7.08736,4.45055 -13.13968,8.09191 -13.44962,8.09191 -0.30993,0 2.07149,-2.3625 5.29205,-5.25 z"
   id="path7743" /><path
   style="fill:#ffffff;fill-opacity:1"
   d="M 500,371.28569 C 460.81138,346.7201 396.34999,319.90633 336,303.06721 c -11.275,-3.146 -21.5125,-6.12598 -22.75,-6.62217 -2.07136,-0.83053 -2.25,-1.53905 -2.25,-8.9236 0,-6.3966 0.29825,-8.02144 1.47237,-8.02144 0.8098,0 8.5723,1.81077 17.25,4.02393 60.14038,15.33824 110.34649,38.85182 156.77763,73.42541 11.28631,8.40402 22.78137,18.49923 21,18.44266 -0.55,-0.0175 -3.925,-1.86531 -7.5,-4.10631 z"
   id="path7883" /><path
   style="fill:#ffffff;fill-opacity:1;stroke-width:0.176777"
   d="m 474.99898,368.21598 c -3.01274,-1.13634 -38.31463,-12.68025 -52.59107,-17.19756 -56.2543,-17.79985 -105.77855,-31.03056 -147.73224,-39.46762 l -3.83601,-0.77143 1.36114,-1.41884 c 0.74862,-0.78036 3.03162,-3.16106 5.07333,-5.29045 4.05339,-4.22747 4.44052,-4.51162 6.15564,-4.51809 2.17812,-0.008 24.92424,5.41806 41.22063,9.83352 30.17314,8.17533 56.27812,16.74222 82.73149,27.15003 24.50168,9.63993 48.23064,20.60254 67.97064,31.40195 1.49196,0.81622 1.35602,0.9233 -0.35355,0.27849 z"
   id="path7887" /><path
   style="fill:#ffffff;fill-opacity:1;stroke-width:0.125"
   d="m 550.375,367.88394 c 0,-0.086 4.36051,-2.66925 6.83399,-4.04861 7.19507,-4.01242 14.42504,-7.48435 30.04101,-14.42612 48.0186,-21.3457 96.62642,-37.38711 147.23422,-48.58981 5.5107,-1.21986 6.3701,-1.34835 7.61063,-1.13788 l 0.90735,0.15394 -0.0324,6.56531 -0.0323,6.56532 -10.25,2.28435 c -17.43228,3.88502 -26.75973,6.09895 -40.0625,9.50911 -22.10819,5.66742 -34.34657,9.06129 -54.0625,14.9923 -16.66284,5.01256 -29.57231,9.14787 -56.1875,17.99858 -20.88916,6.94656 -23.38305,7.75133 -29.61454,9.55643 -2.16031,0.62579 -2.38546,0.68026 -2.38546,0.57708 z"
   id="path7889" /><path
   style="fill:#ffffff;fill-opacity:1;stroke-width:0.125"
   d="m 511.84324,378.80917 c -0.74417,-0.18709 -1.67538,-0.703 -3.15574,-1.74834 -5.77646,-4.07897 -27.42846,-16.35846 -40.27972,-22.84381 l -3.15471,-1.59202 -0.002,-5.58885 -0.002,-5.58885 2.21875,1.4565 c 6.8575,4.50163 16.21743,11.16094 23.21875,16.51945 7.01553,5.36938 11.52891,9.18322 17.25189,14.57794 2.90442,2.73783 3.51314,3.123 4.93561,3.123 0.82969,0 1.02806,-0.0491 1.725,-0.42659 0.44475,-0.24093 1.48034,-1.05683 2.37934,-1.8746 11.04692,-10.0487 19.60376,-17.05139 30.58316,-25.02845 24.69197,-17.9399 53.53379,-33.65931 85.8125,-46.76967 22.76564,-9.24652 46.02922,-16.55811 71.05901,-22.33338 7.4272,-1.71372 8.98875,-2.01888 9.86943,-1.92865 l 0.79235,0.0812 0.13958,0.89048 c 0.34832,2.22208 0.43245,3.60696 0.42244,6.95299 -0.0134,4.46574 -0.27116,7.86709 -0.65301,8.61558 -0.33021,0.64727 -1.11486,1.1652 -2.16556,1.42943 -0.4272,0.10744 -2.52049,0.62166 -4.65174,1.14272 -25.45068,6.22227 -60.37444,17.43414 -91.32656,29.31934 -28.58791,10.97737 -53.93916,22.79499 -76.45606,35.64041 -7.77515,4.43556 -15.59756,9.23843 -23.13494,14.2046 -1.05466,0.69488 -2.23591,1.38468 -2.625,1.53289 -0.79708,0.3036 -2.09833,0.41354 -2.8017,0.2367 z"
   id="path7891" /><path
   style="fill:#ffffff;fill-opacity:1;stroke-width:0.5"
   d="M 507.22351,375.93368 C 495.00332,368.24042 468.91388,353.9825 454.5,347.1202 414.50588,328.07943 369.58324,311.95938 319.01892,298.50414 c -3.70209,-0.98513 -7.13334,-2.15519 -7.625,-2.60014 -0.78473,-0.71017 -0.89392,-1.74809 -0.89392,-8.49719 0,-6.23821 0.13609,-7.74042 0.7216,-7.9651 1.17552,-0.45109 10.75779,1.58177 22.78166,4.83308 35.44366,9.58413 59.79315,18.69836 88.99674,33.31229 31.74037,15.88336 61.62793,35.57857 82.88243,54.61759 3.59354,3.21895 6.03699,5.04437 6.75,5.0427 1.57393,-0.003 2.9741,-1.01782 9.82547,-7.11633 40.27812,-35.85217 96.14126,-65.35479 156.7921,-82.80554 14.29869,-4.11409 35.01384,-8.97868 35.62556,-8.36605 0.58211,0.58299 0.4539,16.16182 -0.13788,16.75321 -0.28178,0.28159 -4.55678,1.55028 -9.5,2.8193 -35.85753,9.20534 -80.93597,24.67688 -115.20858,39.54114 -12.53861,5.43809 -38.4996,18.31321 -48.67289,24.13889 -4.34158,2.48619 -12.21658,7.22348 -17.5,10.5273 -5.73783,3.58799 -10.12025,6.00772 -10.8827,6.00884 -0.70207,10e-4 -3.28957,-1.26547 -5.75,-2.81445 z"
   id="path7893" /><path
   style="fill:#ffffff;fill-opacity:1;stroke-width:0.5"
   d="M 454,361.24218 C 397.7048,342.48464 348.84818,328.36161 303.75,317.80927 295.18498,315.80518 271.83289,310.75 271.14012,310.75 c -0.20519,0 2.09426,-2.475 5.10988,-5.5 4.74288,-4.75763 5.70331,-5.5 7.11558,-5.5 2.93296,0 28.64958,6.21292 47.82246,11.5535 40.60043,11.3092 76.29192,24.23787 111.31196,40.32098 14.50792,6.66282 33.09329,16.14272 31.5,16.0673 -0.4125,-0.0195 -9.4125,-2.92184 -20,-6.4496 z"
   id="path7895" /><path
   style="fill:#ffffff;stroke-width:0.0883883"
   d="m 611.47168,340.36143 10e-4,-1.30373 2.98201,-1.19006 c 33.16124,-13.23399 65.23412,-23.62774 99.28112,-32.1737 8.1636,-2.0491 22.99948,-5.48518 25.75469,-5.96495 1.55756,-0.27121 3.00329,-0.13942 4.14393,0.37778 0.79525,0.36058 1.19647,0.65038 2.23054,1.6111 1.41035,1.3103 4.1251,3.75162 6.91762,6.22088 1.42263,1.25793 2.57273,2.30102 2.55579,2.31797 -0.017,0.017 -3.64696,0.82385 -8.06668,1.79311 -27.60722,6.05437 -39.45796,8.81322 -54.30715,12.64268 -1.67717,0.43253 -4.70005,1.20936 -6.71752,1.7263 -15.84204,4.05925 -32.92743,8.86272 -50.32564,14.1488 l -3.6124,1.09755 h -10.41925 -10.41925 z"
   id="path188" /><path
   style="fill:#ffffff;stroke-width:0.0883883"
   d="m 611.4713,340.36143 7.1e-4,-1.30373 2.84982,-1.13931 c 36.44803,-14.57143 72.27346,-25.89972 110.19746,-34.8453 5.52439,-1.3031 13.57106,-3.09971 14.99575,-3.34816 1.53437,-0.26757 3.05128,-0.1249 4.15288,0.3906 0.8328,0.38972 1.20449,0.67377 2.74083,2.09456 0.77048,0.71253 3.1055,2.81002 5.18894,4.6611 3.41342,3.03274 3.76747,3.37225 3.57972,3.43286 -0.11458,0.037 -3.92728,0.88135 -8.47265,1.87633 -22.79318,4.98944 -34.16696,7.60419 -46.58066,10.70856 -23.94908,5.98909 -43.04446,11.24963 -64.32577,17.72093 l -3.4704,1.05529 h -10.42867 -10.42867 z"
   id="path190" /><path
   style="fill:#ffffff;stroke-width:0.0883883"
   d="m 611.47059,340.35533 v -1.30984 l 4.26474,-1.69389 c 37.92907,-15.06491 74.67744,-26.50208 114.08178,-35.50561 4.8948,-1.11842 8.6198,-1.93364 9.67349,-2.11705 1.55989,-0.27152 3.06951,-0.13181 4.17732,0.38659 0.84588,0.39584 1.17957,0.65518 3.07211,2.38765 0.95985,0.87865 3.29804,2.97808 5.19602,4.66539 3.12056,2.77423 3.43084,3.07436 3.24193,3.13596 -0.1149,0.0375 -3.64942,0.82218 -7.8545,1.74382 -27.76546,6.08541 -38.29688,8.54221 -55.3753,12.9181 -21.61938,5.53939 -35.60781,9.43423 -55.39167,15.42287 l -4.21481,1.27584 h -10.43556 -10.43555 z"
   id="path192" /><path
   style="fill:#ffffff;stroke-width:0.0883883"
   d="m 611.47059,340.354 v -1.31116 l 3.73441,-1.48573 c 33.18585,-13.20296 65.04725,-23.49582 99.01705,-31.98755 8.88108,-2.22009 22.78385,-5.43319 25.32326,-5.85252 1.54843,-0.25569 3.03085,-0.1124 4.12261,0.39849 0.84101,0.39356 1.19944,0.66967 2.96377,2.28301 0.89093,0.81469 3.22513,2.91052 5.1871,4.65741 2.91058,2.59149 3.53627,3.1876 3.39908,3.23835 -0.0925,0.0342 -3.0103,0.68577 -6.48404,1.44792 -29.86326,6.55205 -39.70106,8.84976 -58.28825,13.61381 -19.88798,5.09745 -34.01368,9.03772 -53.5751,14.94442 l -4.51957,1.36471 h -10.44016 -10.44016 z"
   id="path194" /><path
   style="fill:#ffffff;stroke-width:0.0883883"
   d="m 611.47059,340.35424 v -1.31091 l 4.13216,-1.64438 c 38.44585,-15.29942 76.18114,-26.98343 116.65052,-36.11861 6.63301,-1.49727 7.62991,-1.6886 8.78752,-1.6865 1.39894,0.003 2.54047,0.3392 3.58356,1.05686 0.21894,0.15064 1.10515,0.91877 1.96935,1.70697 0.8642,0.78819 3.19634,2.8832 5.18251,4.65557 2.96586,2.64659 3.58175,3.23455 3.44624,3.28993 -0.0907,0.0371 -3.90381,0.88636 -8.47349,1.88729 -27.12457,5.94124 -38.32226,8.55683 -55.4195,12.94507 -20.6523,5.30068 -33.2912,8.81063 -52.38275,14.5472 l -6.59758,1.98243 h -10.43927 -10.43927 z"
   id="path196" /><path
   style="fill:#ffffff;stroke-width:0.0883883"
   d="m 611.47059,340.34831 v -1.31685 l 3.91119,-1.55219 c 24.76597,-9.82857 47.13911,-17.50834 71.74924,-24.62854 16.08704,-4.6543 34.91819,-9.4125 50.73491,-12.81955 2.89536,-0.62368 4.40228,-0.58672 5.93006,0.14545 0.7929,0.37998 0.97257,0.52313 3.26233,2.59918 0.99658,0.90356 2.94554,2.65223 4.33103,3.88593 4.09592,3.64719 4.01298,3.56828 3.82919,3.64279 -0.0886,0.0359 -2.26914,0.5272 -4.84566,1.09175 -31.70474,6.94684 -41.81248,9.31027 -61.65087,14.41542 -19.15483,4.92925 -33.35304,8.90521 -52.80398,14.78682 l -3.52747,1.06664 h -10.45999 -10.45998 z"
   id="path198" /><path
   style="fill:#ffffff;stroke-width:0.0883883"
   d="m 611.47059,340.34547 v -1.3197 l 3.8228,-1.51801 c 39.78304,-15.79764 78.65803,-27.77042 119.52314,-36.81092 4.43391,-0.9809 4.70622,-1.03087 5.88887,-1.08043 1.32675,-0.0556 2.09476,0.083 3.08215,0.55617 0.81688,0.39148 0.98858,0.52716 3.18238,2.51469 0.99658,0.90288 3.29551,2.96705 5.10873,4.58704 1.81323,1.61999 3.27851,2.96371 3.25618,2.98604 -0.0563,0.0563 -0.70034,0.20062 -11.55472,2.58865 -25.93517,5.70589 -35.92693,8.05591 -54.17423,12.7415 -19.01446,4.88259 -33.85349,9.02389 -52.3546,14.61121 l -4.84587,1.46345 h -10.46741 -10.46742 z"
   id="path200" /><path
   style="fill:#ffffff;stroke-width:0.0883883"
   d="m 611.47059,340.34539 v -1.31976 l 3.60183,-1.43059 c 33.30406,-13.22791 64.38728,-23.29577 98.08897,-31.77105 9.39791,-2.36339 23.17957,-5.56478 26.24082,-6.09557 1.69862,-0.29453 3.27105,-0.12352 4.48681,0.48798 0.74695,0.3757 0.90988,0.508 3.47866,2.82476 1.21534,1.0961 3.51783,3.1629 5.11667,4.59288 2.42943,2.17287 2.87954,2.61166 2.74003,2.6711 -0.0918,0.0391 -4.6018,1.04699 -10.02222,2.23971 -25.02453,5.50644 -33.92884,7.56933 -48.03907,11.12939 -22.65147,5.71505 -37.9339,9.92654 -58.89136,16.22912 l -5.85835,1.7618 h -10.47139 -10.4714 z"
   id="path202" /><path
   style="fill:#ffffff;stroke-width:0.0883883"
   d="m 611.47059,340.34567 v -1.31949 l 3.8228,-1.52008 c 39.55416,-15.72814 78.48366,-27.72558 119.25798,-36.75336 5.2624,-1.16515 4.96405,-1.11393 6.49654,-1.11515 1.30613,-10e-4 1.40523,0.0115 2.12523,0.26937 1.01354,0.36298 1.53389,0.72622 3.21387,2.2435 0.7836,0.70771 3.13119,2.81555 5.21688,4.68409 3.18637,2.85463 3.76512,3.40882 3.62287,3.46917 -0.0931,0.0395 -2.97342,0.68936 -6.40068,1.44412 -30.1549,6.64081 -39.4822,8.80746 -55.15433,12.81189 -22.01206,5.62435 -35.1933,9.27671 -55.5287,15.38633 l -5.72188,1.7191 h -10.47529 -10.47529 z"
   id="path204" /><path
   style="fill:#ffffff;stroke-width:0.0883883"
   d="m 611.49039,340.32865 0.0244,-1.3365 2.2097,-0.87467 c 26.00259,-10.29256 46.93342,-17.54061 71.02004,-24.59321 16.35082,-4.78754 35.93929,-9.78484 51.83977,-13.22506 3.05093,-0.6601 3.62764,-0.74082 4.89394,-0.68495 0.8518,0.0376 1.15095,0.0908 1.74469,0.31029 1.00746,0.37247 1.4769,0.69979 3.08563,2.15147 0.77697,0.70112 3.13759,2.82134 5.24582,4.71161 2.64397,2.37062 3.79566,3.4567 3.71231,3.50081 -0.14521,0.0769 0.81988,-0.1395 -11.63214,2.60766 -27.30418,6.02383 -35.83554,8.03369 -54.82415,12.91569 -18.31224,4.70811 -31.91015,8.50275 -50.65812,14.13667 l -5.71264,1.7167 h -10.48683 -10.48682 z"
   id="path206" /><path
   style="fill:#ffffff;stroke-width:0.0883883"
   d="m 611.49039,340.32683 0.0244,-1.33834 4.11005,-1.62648 c 22.51374,-8.9094 42.64366,-15.921 64.56769,-22.49004 17.64834,-5.28793 37.09451,-10.32897 55.33111,-14.34352 4.09596,-0.90167 4.52039,-0.96783 5.87065,-0.91511 1.25516,0.049 2.00492,0.25813 2.90582,0.81045 0.56917,0.34893 0.58581,0.36325 4.2177,3.62898 1.45781,1.31083 3.59903,3.23619 4.75827,4.27858 1.46622,1.31843 2.07148,1.91539 1.98873,1.96146 -0.0654,0.0364 -2.94297,0.68955 -6.39453,1.45139 -28.79938,6.35675 -36.14225,8.04845 -49.89522,11.49516 -22.85397,5.72756 -38.00574,9.88532 -59.75983,16.39854 l -6.77101,2.02726 H 621.9551 611.46599 Z"
   id="path208" /><path
   style="fill:#ffffff;stroke-width:0.0883883"
   d="m 611.49039,340.32895 0.0244,-1.33621 2.60745,-1.038 c 39.26343,-15.63033 76.40678,-27.21331 116.52408,-36.33747 7.7255,-1.75706 8.72325,-1.95574 10.04804,-2.00085 1.38794,-0.0473 2.1551,0.0794 3.04064,0.50204 0.92962,0.44366 0.65698,0.20915 9.4976,8.16914 1.4995,1.35012 2.11631,1.95814 2.03293,2.00397 -0.13522,0.0743 -1.05587,0.28081 -13.36329,2.997 -20.72362,4.57361 -29.59332,6.62498 -41.51297,9.60105 -23.54758,5.87929 -40.33025,10.48518 -62.7542,17.22246 l -5.16919,1.55308 h -10.49995 -10.49994 z"
   id="path210" /><path
   style="fill:#ffffff;stroke-width:0.0883883"
   d="m 611.49039,340.32768 0.0244,-1.33747 3.53553,-1.4049 c 38.58029,-15.33045 75.49285,-26.82508 115.3026,-35.90542 8.65063,-1.97315 9.44047,-2.12148 11.00435,-2.06658 1.96771,0.0691 2.63801,0.39527 4.84104,2.35577 6.04587,5.38027 9.18143,8.25977 9.06515,8.32484 -0.069,0.0386 -2.01305,0.48854 -4.32002,0.99978 -2.30697,0.51124 -8.41061,1.86348 -13.56365,3.00496 -18.90439,4.18763 -26.50497,5.96037 -38.89087,9.07077 -22.78468,5.72178 -38.1436,9.94428 -60.09972,16.5227 l -5.91765,1.77303 h -10.50278 -10.50278 z"
   id="path212" /></svg>
